# xmcd
#
# Track frame offsets: 
#        150
#        15153
#        35100
#        51645
#        70716
#        71647
#        91313
#        116316
#        133199
#        146735
#        159204
#        169992
#        196582
#        211961
#        232536
#        251801
#
# Disc length: 3580 seconds
#
# Revision: 0
# Processed by: cddbd v1.5.2PL0 Copyright (c) Steve Scherf et al.
# Submitted via: ExactAudioCopy v0.99pb5
#
DISCID=d90dfa10
DTITLE=Mr. SOS - The Pre-op [EP]
DYEAR=2006
DGENRE=Hip-Hop
TTITLE0=Welcome To Planet Earth
TTITLE1=As The Globe Turns
TTITLE2=Time (What Is It?)
TTITLE3=The Desert (feat. Witchdoctor)
TTITLE4=NonSense (Intro)
TTITLE5=The NonSense
TTITLE6=Don't Know My Neighbors (feat. Chapter 13)
TTITLE7=Fraud Felines Aka Too Many Cats Be Fakin
TTITLE8=Chillin With Ice T (Interlude)
TTITLE9=Let's Go Get Stoned
TTITLE10=Outro
TTITLE11=Outlook On Life (feat. Kapital Korruption)
TTITLE12=Welcome To Planet Earth (Instrumental)
TTITLE13=As The Globe Turns (Instrumental)
TTITLE14=The Desert (Instrumental)
TTITLE15=Fraud Felines Aka Too Many Cats Be Fakin (Instrumental)
EXTD=
EXTT0=
EXTT1=
EXTT2=
EXTT3=
EXTT4=
EXTT5=
EXTT6=
EXTT7=
EXTT8=
EXTT9=
EXTT10=
EXTT11=
EXTT12=
EXTT13=
EXTT14=
EXTT15=
PLAYORDER=
